HIERARCHY
ROOT mixamorig:Hips
{
	OFFSET -0.000008 104.274872 1.554316
	CHANNELS 6 Xposition Yposition Zposition Xrotation Yrotation Zrotation
	JOINT mixamorig:Spine
	{
		OFFSET -0.000005 10.181595 0.131519
		CHANNELS 6 Xposition Yposition Zposition Xrotation Yrotation Zrotation
		JOINT mixamorig:Spine1
		{
			OFFSET -0.000000 9.893959 -1.470707
			CHANNELS 6 Xposition Yposition Zposition Xrotation Yrotation Zrotation
			JOINT mixamorig:Spine2
			{
				OFFSET -0.000000 9.220757 -1.370641
				CHANNELS 6 Xposition Yposition Zposition Xrotation Yrotation Zrotation
				JOINT mixamorig:Neck
				{
					OFFSET 0.000001 16.740417 -2.049036
					CHANNELS 6 Xposition Yposition Zposition Xrotation Yrotation Zrotation
					JOINT mixamorig:Head
					{
						OFFSET 0.000000 9.617874 1.685006
						CHANNELS 6 Xposition Yposition Zposition Xrotation Yrotation Zrotation
						JOINT mixamorig:HeadTop_End
						{
							OFFSET 0.000002 22.037354 7.501101
							CHANNELS 6 Xposition Yposition Zposition Xrotation Yrotation Zrotation
							End Site
							{
								OFFSET 0.000168 2310.654297 -282.823242
							}
						}
					}
				}
				JOINT mixamorig:RightShoulder
				{
					OFFSET -4.569970 11.014908 -2.160885
					CHANNELS 6 Xposition Yposition Zposition Xrotation Yrotation Zrotation
					JOINT mixamorig:RightArm
					{
						OFFSET -10.592851 -0.524811 -2.232101
						CHANNELS 6 Xposition Yposition Zposition Xrotation Yrotation Zrotation
						JOINT mixamorig:RightForeArm
						{
							OFFSET -27.841511 0.000031 -0.000004
							CHANNELS 6 Xposition Yposition Zposition Xrotation Yrotation Zrotation
							JOINT mixamorig:RightHand
							{
								OFFSET -28.328831 -0.000015 0.000015
								CHANNELS 6 Xposition Yposition Zposition Xrotation Yrotation Zrotation
								JOINT mixamorig:RightHandThumb1
								{
									OFFSET -2.464806 -1.573990 2.681852
									CHANNELS 6 Xposition Yposition Zposition Xrotation Yrotation Zrotation
									JOINT mixamorig:RightHandThumb2
									{
										OFFSET -3.215179 -1.872803 1.924282
										CHANNELS 6 Xposition Yposition Zposition Xrotation Yrotation Zrotation
										JOINT mixamorig:RightHandThumb3
										{
											OFFSET -2.654831 -1.527969 1.512609
											CHANNELS 6 Xposition Yposition Zposition Xrotation Yrotation Zrotation
											JOINT mixamorig:RightHandThumb4
											{
												OFFSET -2.018814 -1.152008 1.108052
												CHANNELS 6 Xposition Yposition Zposition Xrotation Yrotation Zrotation
												End Site
												{
													OFFSET -188.809540 -114.533607 132.431396
												}
											}
										}
									}
								}
								JOINT mixamorig:RightHandIndex1
								{
									OFFSET -9.108284 -0.517868 2.259835
									CHANNELS 6 Xposition Yposition Zposition Xrotation Yrotation Zrotation
									JOINT mixamorig:RightHandIndex2
									{
										OFFSET -3.699989 0.000000 0.001215
										CHANNELS 6 Xposition Yposition Zposition Xrotation Yrotation Zrotation
										JOINT mixamorig:RightHandIndex3
										{
											OFFSET -2.850006 0.000031 -0.000522
											CHANNELS 6 Xposition Yposition Zposition Xrotation Yrotation Zrotation
											JOINT mixamorig:RightHandIndex4
											{
												OFFSET -2.772186 -0.000015 -0.000020
												CHANNELS 6 Xposition Yposition Zposition Xrotation Yrotation Zrotation
												End Site
												{
													OFFSET -277.218445 0.000000 -0.050231
												}
											}
										}
									}
								}
								JOINT mixamorig:RightHandMiddle1
								{
									OFFSET -9.532516 -0.000031 -0.000023
									CHANNELS 6 Xposition Yposition Zposition Xrotation Yrotation Zrotation
									JOINT mixamorig:RightHandMiddle2
									{
										OFFSET -3.700005 -0.000015 0.003713
										CHANNELS 6 Xposition Yposition Zposition Xrotation Yrotation Zrotation
										JOINT mixamorig:RightHandMiddle3
										{
											OFFSET -2.949974 0.000015 -0.002054
											CHANNELS 6 Xposition Yposition Zposition Xrotation Yrotation Zrotation
											JOINT mixamorig:RightHandMiddle4
											{
												OFFSET -2.946640 0.000000 -0.000156
												CHANNELS 6 Xposition Yposition Zposition Xrotation Yrotation Zrotation
												End Site
												{
													OFFSET -294.664337 0.000000 -0.113670
												}
											}
										}
									}
								}
								JOINT mixamorig:RightHandRing1
								{
									OFFSET -9.103600 -0.043076 -1.865134
									CHANNELS 6 Xposition Yposition Zposition Xrotation Yrotation Zrotation
									JOINT mixamorig:RightHandRing2
									{
										OFFSET -3.379288 0.000000 -0.001055
										CHANNELS 6 Xposition Yposition Zposition Xrotation Yrotation Zrotation
										JOINT mixamorig:RightHandRing3
										{
											OFFSET -2.889687 -0.000015 0.000379
											CHANNELS 6 Xposition Yposition Zposition Xrotation Yrotation Zrotation
											JOINT mixamorig:RightHandRing4
											{
												OFFSET -2.638809 -0.000015 0.000941
												CHANNELS 6 Xposition Yposition Zposition Xrotation Yrotation Zrotation
												End Site
												{
													OFFSET -263.880371 0.000000 0.516020
												}
											}
										}
									}
								}
								JOINT mixamorig:RightHandPinky1
								{
									OFFSET -8.076683 -0.486710 -3.806280
									CHANNELS 6 Xposition Yposition Zposition Xrotation Yrotation Zrotation
									JOINT mixamorig:RightHandPinky2
									{
										OFFSET -3.600014 -0.000015 -0.003747
										CHANNELS 6 Xposition Yposition Zposition Xrotation Yrotation Zrotation
										JOINT mixamorig:RightHandPinky3
										{
											OFFSET -2.099983 0.000000 -0.005739
											CHANNELS 6 Xposition Yposition Zposition Xrotation Yrotation Zrotation
											JOINT mixamorig:RightHandPinky4
											{
												OFFSET -2.115768 -0.000031 -0.003680
												CHANNELS 6 Xposition Yposition Zposition Xrotation Yrotation Zrotation
												End Site
												{
													OFFSET -211.577087 0.000000 -0.350686
												}
											}
										}
									}
								}
							}
						}
					}
				}
				JOINT mixamorig:LeftShoulder
				{
					OFFSET 4.570447 11.014725 -2.160855
					CHANNELS 6 Xposition Yposition Zposition Xrotation Yrotation Zrotation
					JOINT mixamorig:LeftArm
					{
						OFFSET 10.592371 -0.524597 -2.232119
						CHANNELS 6 Xposition Yposition Zposition Xrotation Yrotation Zrotation
						JOINT mixamorig:LeftForeArm
						{
							OFFSET 27.841532 -0.000031 0.000026
							CHANNELS 6 Xposition Yposition Zposition Xrotation Yrotation Zrotation
							JOINT mixamorig:LeftHand
							{
								OFFSET 28.328846 -0.000061 0.000022
								CHANNELS 6 Xposition Yposition Zposition Xrotation Yrotation Zrotation
								JOINT mixamorig:LeftHandThumb1
								{
									OFFSET 2.466141 -1.576172 2.681732
									CHANNELS 6 Xposition Yposition Zposition Xrotation Yrotation Zrotation
									JOINT mixamorig:LeftHandThumb2
									{
										OFFSET 3.217812 -1.872070 1.916482
										CHANNELS 6 Xposition Yposition Zposition Xrotation Yrotation Zrotation
										JOINT mixamorig:LeftHandThumb3
										{
											OFFSET 2.656029 -1.528778 1.514513
											CHANNELS 6 Xposition Yposition Zposition Xrotation Yrotation Zrotation
											JOINT mixamorig:LeftHandThumb4
											{
												OFFSET 2.020889 -1.154053 1.115139
												CHANNELS 6 Xposition Yposition Zposition Xrotation Yrotation Zrotation
												End Site
												{
													OFFSET 190.885437 -115.081749 130.048782
												}
											}
										}
									}
								}
								JOINT mixamorig:LeftHandIndex1
								{
									OFFSET 9.109314 -0.518021 2.259871
									CHANNELS 6 Xposition Yposition Zposition Xrotation Yrotation Zrotation
									JOINT mixamorig:LeftHandIndex2
									{
										OFFSET 3.699989 0.000000 -0.000322
										CHANNELS 6 Xposition Yposition Zposition Xrotation Yrotation Zrotation
										JOINT mixamorig:LeftHandIndex3
										{
											OFFSET 2.850006 0.000000 0.000352
											CHANNELS 6 Xposition Yposition Zposition Xrotation Yrotation Zrotation
											JOINT mixamorig:LeftHandIndex4
											{
												OFFSET 2.774864 -0.000031 -0.000027
												CHANNELS 6 Xposition Yposition Zposition Xrotation Yrotation Zrotation
												End Site
												{
													OFFSET 277.486267 0.000000 -0.009857
												}
											}
										}
									}
								}
								JOINT mixamorig:LeftHandMiddle1
								{
									OFFSET 9.533394 0.000061 0.000044
									CHANNELS 6 Xposition Yposition Zposition Xrotation Yrotation Zrotation
									JOINT mixamorig:LeftHandMiddle2
									{
										OFFSET 3.699989 -0.000015 -0.000231
										CHANNELS 6 Xposition Yposition Zposition Xrotation Yrotation Zrotation
										JOINT mixamorig:LeftHandMiddle3
										{
											OFFSET 2.949997 -0.000015 -0.000059
											CHANNELS 6 Xposition Yposition Zposition Xrotation Yrotation Zrotation
											JOINT mixamorig:LeftHandMiddle4
											{
												OFFSET 2.952896 0.000031 0.000063
												CHANNELS 6 Xposition Yposition Zposition Xrotation Yrotation Zrotation
												End Site
												{
													OFFSET 295.289337 0.000000 0.022810
												}
											}
										}
									}
								}
								JOINT mixamorig:LeftHandRing1
								{
									OFFSET 9.104523 -0.042999 -1.865074
									CHANNELS 6 Xposition Yposition Zposition Xrotation Yrotation Zrotation
									JOINT mixamorig:LeftHandRing2
									{
										OFFSET 3.150009 -0.000031 0.000043
										CHANNELS 6 Xposition Yposition Zposition Xrotation Yrotation Zrotation
										JOINT mixamorig:LeftHandRing3
										{
											OFFSET 2.949982 -0.000015 0.000040
											CHANNELS 6 Xposition Yposition Zposition Xrotation Yrotation Zrotation
											JOINT mixamorig:LeftHandRing4
											{
												OFFSET 2.644348 0.000000 0.000057
												CHANNELS 6 Xposition Yposition Zposition Xrotation Yrotation Zrotation
												End Site
												{
													OFFSET 264.434631 0.000000 0.012105
												}
											}
										}
									}
								}
								JOINT mixamorig:LeftHandPinky1
								{
									OFFSET 8.077789 -0.486847 -3.806259
									CHANNELS 6 Xposition Yposition Zposition Xrotation Yrotation Zrotation
									JOINT mixamorig:LeftHandPinky2
									{
										OFFSET 3.599953 0.000031 0.014727
										CHANNELS 6 Xposition Yposition Zposition Xrotation Yrotation Zrotation
										JOINT mixamorig:LeftHandPinky3
										{
											OFFSET 2.100021 0.000015 0.007705
											CHANNELS 6 Xposition Yposition Zposition Xrotation Yrotation Zrotation
											JOINT mixamorig:LeftHandPinky4
											{
												OFFSET 2.125504 0.000031 0.007517
												CHANNELS 6 Xposition Yposition Zposition Xrotation Yrotation Zrotation
												End Site
												{
													OFFSET 212.550781 0.000000 0.625752
												}
											}
										}
									}
								}
							}
						}
					}
				}
			}
		}
	}
	JOINT mixamorig:RightUpLeg
	{
		OFFSET -8.207787 -6.751648 -1.599560
		CHANNELS 6 Xposition Yposition Zposition Xrotation Yrotation Zrotation
		JOINT mixamorig:RightLeg
		{
			OFFSET -0.000002 -44.370117 0.345942
			CHANNELS 6 Xposition Yposition Zposition Xrotation Yrotation Zrotation
			JOINT mixamorig:RightFoot
			{
				OFFSET 0.000003 -44.423679 -3.043532
				CHANNELS 6 Xposition Yposition Zposition Xrotation Yrotation Zrotation
				JOINT mixamorig:RightToeBase
				{
					OFFSET -0.000002 -8.728671 10.710558
					CHANNELS 6 Xposition Yposition Zposition Xrotation Yrotation Zrotation
					JOINT mixamorig:RightToe_End
					{
						OFFSET -0.000001 -0.000679 9.278119
						CHANNELS 6 Xposition Yposition Zposition Xrotation Yrotation Zrotation
						End Site
						{
							OFFSET 0.000000 -0.067690 927.812134
						}
					}
				}
			}
		}
	}
	JOINT mixamorig:LeftUpLeg
	{
		OFFSET 8.207793 -6.751686 -1.599556
		CHANNELS 6 Xposition Yposition Zposition Xrotation Yrotation Zrotation
		JOINT mixamorig:LeftLeg
		{
			OFFSET -0.000004 -44.370014 0.346954
			CHANNELS 6 Xposition Yposition Zposition Xrotation Yrotation Zrotation
			JOINT mixamorig:LeftFoot
			{
				OFFSET -0.000001 -44.423672 -3.044401
				CHANNELS 6 Xposition Yposition Zposition Xrotation Yrotation Zrotation
				JOINT mixamorig:LeftToeBase
				{
					OFFSET -0.000002 -8.728669 10.710558
					CHANNELS 6 Xposition Yposition Zposition Xrotation Yrotation Zrotation
					JOINT mixamorig:LeftToe_End
					{
						OFFSET -0.000003 -0.000679 9.278133
						CHANNELS 6 Xposition Yposition Zposition Xrotation Yrotation Zrotation
						End Site
						{
							OFFSET 0.000000 -0.068021 927.813477
						}
					}
				}
			}
		}
	}
}
MOTION
Frames: 3
Frame Time: 0.033333
0.000006 104.270477 1.554256 0.000010 0.000003 -0.000113 -0.000005 10.181587 0.131522 0.000001 -0.000003 0.000084 -0.000000 9.893967 -1.470711 0.000001 0.000000 -0.000000 -0.000000 9.220802 -1.370642 0.000000 -0.000000 -0.000000 0.000001 16.740433 -2.049030 0.000000 -0.000000 -0.000000 0.000000 9.617859 1.685014 0.000000 0.000000 0.000000 0.000002 22.037384 7.501101 0.000000 -0.000000 0.000000 -4.569968 11.014880 -2.160881 0.000008 0.000001 -0.000038 -10.592879 -0.524757 -2.231912 74.888660 28.506462 -22.016599 -27.841518 0.000012 0.000543 -50.891603 106.676053 65.176575 -28.328825 0.000021 0.000030 -0.000321 -0.000043 0.000005 -2.464462 -1.573686 2.682295 -53.425176 -176.892870 -28.382317 -3.215280 -1.872626 1.924664 152.722593 30.120117 -4.595046 -2.654954 -1.527861 1.513066 142.850347 27.930571 -34.049589 -2.018823 -1.152000 1.108051 -0.000001 -0.000004 0.000004 -9.108353 -0.517550 2.260082 91.063900 13.188027 -13.479021 -3.700073 0.000346 0.001481 90.385976 9.486541 -9.527808 -2.850071 0.000367 -0.000299 89.529252 8.484427 -8.414367 -2.772181 -0.000015 -0.000021 -0.000003 0.000001 0.000001 -9.532568 0.000269 0.000151 76.291840 11.676063 -9.290222 -3.700043 0.000321 0.003868 434.296649 6.994132 -5.233994 -2.950058 0.000309 -0.001914 76.455252 8.991374 -7.082602 -2.946614 0.000001 -0.000157 0.000001 0.000002 -0.000001 -9.103674 -0.042780 -1.864964 73.306658 14.852981 -11.046868 -3.379326 0.000304 -0.000920 73.825998 7.378272 -5.558456 -2.889751 0.000335 0.000534 77.754744 6.041593 -4.908959 -2.638805 0.000001 0.000943 0.000001 -0.000002 0.000001 -8.076731 -0.486416 -3.806126 65.717655 15.454761 -9.918936 -3.600052 0.000232 -0.003634 63.702183 8.528707 -5.079505 -2.100008 0.000275 -0.005598 65.319319 5.770617 -3.558327 -2.115767 -0.000054 -0.003683 -0.000000 -0.000002 -0.000004 4.570446 11.014691 -2.160851 -0.000018 0.000010 -0.000021 10.592527 -0.524536 -2.232398 69.340702 -64.529510 47.177940 27.841717 -0.000102 -0.000100 68.825221 -106.163447 84.715847 28.328838 -0.000027 0.000020 0.000020 -0.000088 -0.000000 2.466116 -1.576177 2.681890 89.761185 120.048224 -136.178700 3.217835 -1.871980 1.916534 95.697828 146.352362 -147.219482 2.656094 -1.528734 1.514630 -94.706126 22.492742 35.142881 2.020880 -1.154071 1.115151 0.000002 0.000003 0.000001 9.109203 -0.517778 2.260117 -124.143797 -18.173965 -33.568874 3.699773 0.000004 -0.000198 -172.444545 -30.420399 -152.661012 2.850104 0.000075 0.000383 -199.931672 -23.470238 -260.459456 2.774891 -0.000043 -0.000027 -0.000000 -0.000001 0.000001 9.533313 0.000304 0.000280 -123.514887 -17.219949 -31.476879 3.699750 0.000056 -0.000129 6.804576 -155.208167 30.264158 2.950081 0.000059 -0.000033 -193.605592 -16.774147 102.064958 2.952859 -0.000030 0.000053 0.000001 0.000002 -0.000000 9.104487 -0.042809 -1.864821 -103.310238 -12.256514 -15.460878 3.149934 0.000328 0.000289 -119.428030 -12.279565 -20.874559 2.949927 0.000309 0.000292 -119.716550 -8.636133 -14.820245 2.644329 0.000031 0.000058 -0.000000 -0.000003 -0.000001 8.077764 -0.486733 -3.806002 -81.031862 -7.350611 -6.629776 3.599947 0.000210 0.014962 -90.277534 -3.110158 -3.524375 2.099993 0.000220 0.007962 -95.412244 -2.211404 -2.856736 2.125501 -0.000027 0.007509 -0.000002 0.000000 0.000001 -8.207786 -6.751667 -1.599560 -0.077001 -0.000003 0.000080 -0.000002 -44.370110 0.345938 0.153719 -0.000000 -0.000000 0.000000 -44.423679 -3.043532 -0.076700 0.000000 -0.000002 -0.000006 -8.728667 10.710559 -0.000009 -0.000000 -0.000000 -0.000001 -0.000679 9.278123 0.000000 -0.000000 -0.000000 8.207792 -6.751710 -1.599556 -0.074518 -0.000003 0.000081 -0.000002 -44.370014 0.346960 0.148822 0.000002 0.000000 -0.000001 -44.423664 -3.044403 -0.074314 0.000000 -0.000002 -0.000004 -8.728671 10.710558 0.000007 -0.000000 -0.000000 0.000000 -0.000680 9.278137 -0.000000 0.000000 -0.000001 
0.000006 104.270477 1.554256 0.000010 0.000003 -0.000113 -0.000005 10.181587 0.131522 0.000001 -0.000003 0.000084 -0.000000 9.893967 -1.470711 0.000001 0.000000 -0.000000 -0.000000 9.220802 -1.370642 0.000000 -0.000000 -0.000000 0.000001 16.740433 -2.049030 0.000000 -0.000000 -0.000000 0.000000 9.617859 1.685014 0.000000 0.000000 0.000000 0.000002 22.037384 7.501101 0.000000 -0.000000 0.000000 -4.569968 11.014880 -2.160881 0.000008 0.000001 -0.000038 -10.592873 -0.524766 -2.231890 74.722290 30.082407 -23.188250 -27.841518 0.000016 0.000543 -51.011408 105.934465 64.616595 -28.328833 0.000007 0.000030 -0.000322 -0.000043 0.000005 -2.464449 -1.573709 2.682313 -52.640234 -174.432035 -24.810316 -3.215286 -1.872568 1.924656 152.170645 30.495108 -1.744540 -2.654959 -1.527875 1.513072 142.764792 27.947312 -34.014373 -2.018830 -1.151997 1.108056 -0.000004 -0.000003 0.000000 -9.108372 -0.517540 2.260082 92.008372 13.190540 -13.703648 -3.700049 0.000333 0.001470 90.790173 9.625045 -9.735308 -2.850074 0.000366 -0.000284 89.707705 8.455977 -8.412216 -2.772166 -0.000012 -0.000019 0.000002 0.000000 -0.000002 -9.532560 0.000269 0.000159 76.580819 12.129185 -9.698109 -3.700047 0.000324 0.003875 434.736896 7.445167 -5.620413 -2.950031 0.000322 -0.001901 76.525959 8.947421 -7.056826 -2.946638 0.000004 -0.000153 0.000000 -0.000002 -0.000001 -9.103688 -0.042786 -1.864959 73.277589 15.946702 -11.860641 -3.379303 0.000306 -0.000890 74.507399 8.256837 -6.297121 -2.889725 0.000333 0.000539 78.250834 6.129338 -5.024040 -2.638813 -0.000003 0.000942 -0.000000 -0.000001 0.000002 -8.076748 -0.486426 -3.806121 65.459522 16.013307 -10.232486 -3.600040 0.000234 -0.003634 64.207822 8.734129 -5.258343 -2.100018 0.000290 -0.005589 65.493707 5.726262 -3.541810 -2.115768 -0.000041 -0.003681 -0.000000 -0.000003 -0.000003 4.570446 11.014691 -2.160851 -0.000018 0.000010 -0.000021 10.592528 -0.524535 -2.232394 68.937352 -64.626369 46.940461 27.841730 -0.000077 -0.000098 67.832958 -105.764762 83.241646 28.328831 -0.000013 0.000031 0.000021 -0.000088 0.000000 2.466107 -1.576182 2.681862 93.817655 117.603618 -138.547355 3.217826 -1.871973 1.916559 102.138355 149.908254 -151.649106 2.656075 -1.528740 1.514632 -94.030497 23.832950 35.314598 2.020864 -1.154067 1.115140 0.000003 0.000002 0.000008 9.109232 -0.517733 2.260094 -128.272414 -13.300382 -27.031963 3.699785 0.000012 -0.000202 -174.471267 -25.198333 -155.571765 2.850134 0.000159 0.000368 -206.594125 -20.946233 -283.942548 2.774897 -0.000034 -0.000028 -0.000001 0.000004 -0.000004 9.533370 0.000310 0.000262 -116.290241 -6.261201 -10.050828 3.699896 0.000303 -0.000003 49.356805 -166.237911 150.572162 2.949859 0.000293 0.000134 -137.124326 -19.277029 -46.780550 2.952851 -0.000017 0.000052 -0.000001 -0.000000 -0.000000 9.104517 -0.042800 -1.864828 -104.344178 -4.742953 -6.107995 3.149988 0.000280 0.000278 -114.893208 -4.096517 -6.415270 2.949950 0.000275 0.000299 -111.677780 -7.631677 -11.228507 2.644326 0.000045 0.000055 -0.000001 0.000002 -0.000001 8.077768 -0.486714 -3.806014 -87.735624 -4.713885 -4.943327 3.599965 0.000182 0.014956 -90.458698 0.974669 0.551363 2.099995 0.000188 0.007952 -92.188709 -1.753431 -2.227980 2.125509 -0.000030 0.007507 -0.000004 -0.000001 0.000001 -8.207786 -6.751667 -1.599560 -0.077001 -0.000003 0.000080 -0.000002 -44.370110 0.345938 0.153719 -0.000000 -0.000000 0.000000 -44.423679 -3.043532 -0.076700 0.000000 -0.000002 -0.000006 -8.728667 10.710559 -0.000009 -0.000000 -0.000000 -0.000001 -0.000679 9.278123 0.000000 -0.000000 -0.000000 8.207792 -6.751710 -1.599556 -0.074518 -0.000003 0.000081 -0.000002 -44.370014 0.346960 0.148822 0.000002 0.000000 -0.000001 -44.423664 -3.044403 -0.074314 0.000000 -0.000002 -0.000004 -8.728671 10.710558 0.000007 -0.000000 -0.000000 0.000000 -0.000680 9.278137 -0.000000 0.000000 -0.000001 
0.000006 104.270477 1.554256 0.000010 0.000003 -0.000113 -0.000005 10.181587 0.131522 0.000001 -0.000003 0.000084 -0.000000 9.893967 -1.470711 0.000001 0.000000 -0.000000 -0.000000 9.220802 -1.370642 0.000000 -0.000000 -0.000000 0.000001 16.740433 -2.049030 0.000000 -0.000000 -0.000000 0.000000 9.617859 1.685014 0.000000 0.000000 0.000000 0.000002 22.037384 7.501101 0.000000 -0.000000 0.000000 -4.569968 11.014880 -2.160881 0.000008 0.000001 -0.000038 -10.592875 -0.524766 -2.231894 74.704661 29.504979 -22.727825 -27.841518 0.000000 0.000541 -50.854672 105.770342 64.280550 -28.328800 0.000021 0.000033 -0.000318 -0.000045 0.000005 -2.464472 -1.573691 2.682282 -53.661893 -178.099669 -29.779782 -3.215291 -1.872624 1.924669 152.606111 29.770728 -6.919778 -2.654945 -1.527839 1.513063 142.813450 27.864742 -35.251074 -2.018834 -1.151985 1.108051 -0.000001 -0.000003 0.000002 -9.108372 -0.517538 2.260083 91.900899 13.592949 -14.093987 -3.700053 0.000331 0.001479 90.170067 9.213426 -9.218296 -2.850070 0.000372 -0.000299 89.005465 8.097611 -7.957833 -2.772173 0.000000 -0.000017 0.000000 0.000000 0.000001 -9.532561 0.000266 0.000157 76.380052 12.954094 -10.316367 -3.700054 0.000320 0.003870 434.995514 7.844562 -5.953339 -2.950061 0.000310 -0.001889 76.647591 9.148876 -7.231804 -2.946642 0.000001 -0.000155 -0.000000 0.000002 0.000001 -9.103699 -0.042773 -1.864945 72.738783 16.937551 -12.481599 -3.379304 0.000300 -0.000914 73.773522 8.950391 -6.735885 -2.889746 0.000335 0.000547 78.158107 6.454949 -5.280616 -2.638822 -0.000014 0.000937 0.000000 -0.000001 -0.000001 -8.076749 -0.486410 -3.806129 65.730886 16.525033 -10.619528 -3.600055 0.000227 -0.003623 64.468400 9.463651 -5.744233 -2.100018 0.000273 -0.005613 66.319675 6.511967 -4.110638 -2.115753 -0.000036 -0.003684 -0.000001 -0.000003 -0.000003 4.570446 11.014691 -2.160851 -0.000018 0.000010 -0.000021 10.592527 -0.524530 -2.232395 68.150173 -64.443525 46.179302 27.841734 -0.000112 -0.000100 67.167630 -105.708317 82.468913 28.328831 -0.000044 0.000028 0.000022 -0.000088 0.000000 2.466121 -1.576175 2.681877 81.239534 120.294958 -129.621732 3.217837 -1.871979 1.916569 98.254614 149.121608 -149.397957 2.656069 -1.528738 1.514612 -95.300352 25.768644 36.736070 2.020902 -1.154070 1.115150 -0.000000 0.000003 0.000004 9.109225 -0.517713 2.260077 -132.693582 -14.868514 -33.165961 3.699776 0.000016 -0.000204 -171.797713 -29.659530 -149.657381 2.850119 0.000095 0.000369 -202.460317 -23.485553 -267.379066 2.774887 -0.000037 -0.000035 -0.000001 0.000000 0.000000 9.533361 0.000306 0.000257 -119.325276 -8.434677 -14.353093 3.699889 0.000319 -0.000013 48.338898 -164.449181 146.156773 2.949881 0.000298 0.000158 -137.921067 -16.445236 -41.182994 2.952873 -0.000030 0.000060 0.000000 -0.000001 0.000000 9.104506 -0.042789 -1.864824 -108.141408 -7.291643 -10.051816 3.149967 0.000309 0.000278 -120.222217 -7.315083 -12.694424 2.949934 0.000294 0.000270 -118.317195 -7.656866 -12.791237 2.644323 0.000001 0.000062 -0.000001 -0.000002 0.000001 8.077764 -0.486683 -3.806001 -93.775997 -5.914055 -6.762322 3.599963 0.000208 0.014979 -95.742156 -1.312986 -1.905647 2.099991 0.000189 0.007925 -92.864413 -2.426898 -2.957190 2.125489 0.000000 0.007528 -0.000005 -0.000002 -0.000000 -8.207786 -6.751667 -1.599560 -0.077001 -0.000003 0.000080 -0.000002 -44.370110 0.345938 0.153719 -0.000000 -0.000000 0.000000 -44.423679 -3.043532 -0.076700 0.000000 -0.000002 -0.000006 -8.728667 10.710559 -0.000009 -0.000000 -0.000000 -0.000001 -0.000679 9.278123 0.000000 -0.000000 -0.000000 8.207792 -6.751710 -1.599556 -0.074518 -0.000003 0.000081 -0.000002 -44.370014 0.346960 0.148822 0.000002 0.000000 -0.000001 -44.423664 -3.044403 -0.074314 0.000000 -0.000002 -0.000004 -8.728671 10.710558 0.000007 -0.000000 -0.000000 0.000000 -0.000680 9.278137 -0.000000 0.000000 -0.000001 
